<?xml version="1.0" encoding="UTF-8" standalone="no"?>
<!DOCTYPE svg PUBLIC "-//W3C//DTD SVG 1.1//EN"
 "http://www.w3.org/Graphics/SVG/1.1/DTD/svg11.dtd">
<!-- Generated by graphviz version 2.42.4 (0)
 -->
<!-- Title: infrapeek Pages: 1 -->
<svg width="984pt" height="380pt"
 viewBox="0.00 0.00 984.21 380.00" xmlns="http://www.w3.org/2000/svg" xmlns:xlink="http://www.w3.org/1999/xlink">
<g id="graph0" class="graph" transform="scale(1 1) rotate(0) translate(4 376)">
<title>infrapeek</title>
<polygon fill="white" stroke="transparent" points="-4,4 -4,-376 980.21,-376 980.21,4 -4,4"/>
<g id="clust1" class="cluster">
<title>cluster_vpc</title>
<path fill="none" stroke="#37474f" d="M151.21,-8C151.21,-8 956.21,-8 956.21,-8 962.21,-8 968.21,-14 968.21,-20 968.21,-20 968.21,-259 968.21,-259 968.21,-265 962.21,-271 956.21,-271 956.21,-271 151.21,-271 151.21,-271 145.21,-271 139.21,-265 139.21,-259 139.21,-259 139.21,-20 139.21,-20 139.21,-14 145.21,-8 151.21,-8"/>
<text text-anchor="middle" x="553.71" y="-255.8" font-family="Helvetica,sans-Serif" font-weight="bold" font-size="14.00">VIRTUAL PRIVATE CLOUD (VPC) &#160;&#160;10.0.0.0/16</text>
</g>
<g id="clust2" class="cluster">
<title>cluster_vera_pub_subnet</title>
<path fill="#e3f2fd" stroke="#90a4ae" d="M159.21,-16C159.21,-16 390.21,-16 390.21,-16 396.21,-16 402.21,-22 402.21,-28 402.21,-28 402.21,-228 402.21,-228 402.21,-234 396.21,-240 390.21,-240 390.21,-240 159.21,-240 159.21,-240 153.21,-240 147.21,-234 147.21,-228 147.21,-228 147.21,-28 147.21,-28 147.21,-22 153.21,-16 159.21,-16"/>
<text text-anchor="middle" x="274.71" y="-224.8" font-family="Helvetica,sans-Serif" font-weight="bold" font-size="14.00">PUBLIC SUBNET (10.0.1.0/24)</text>
</g>
<g id="clust3" class="cluster">
<title>cluster_vera_pvt_subnet_1</title>
<path fill="#fff3e0" stroke="#90a4ae" d="M422.21,-16C422.21,-16 669.21,-16 669.21,-16 675.21,-16 681.21,-22 681.21,-28 681.21,-28 681.21,-102 681.21,-102 681.21,-108 675.21,-114 669.21,-114 669.21,-114 422.21,-114 422.21,-114 416.21,-114 410.21,-108 410.21,-102 410.21,-102 410.21,-28 410.21,-28 410.21,-22 416.21,-16 422.21,-16"/>
<text text-anchor="middle" x="545.71" y="-98.8" font-family="Helvetica,sans-Serif" font-weight="bold" font-size="14.00">PRIVATE SUBNET 1 (10.0.2.0/24)</text>
</g>
<g id="clust4" class="cluster">
<title>cluster_vera_pvt_subnet_2</title>
<path fill="#fff3e0" stroke="#90a4ae" d="M701.21,-16C701.21,-16 948.21,-16 948.21,-16 954.21,-16 960.21,-22 960.21,-28 960.21,-28 960.21,-102 960.21,-102 960.21,-108 954.21,-114 948.21,-114 948.21,-114 701.21,-114 701.21,-114 695.21,-114 689.21,-108 689.21,-102 689.21,-102 689.21,-28 689.21,-28 689.21,-22 695.21,-16 701.21,-16"/>
<text text-anchor="middle" x="824.71" y="-98.8" font-family="Helvetica,sans-Serif" font-weight="bold" font-size="14.00">PRIVATE SUBNET 2 (10.0.3.0/24)</text>
</g>
<!-- Internet -->
<g id="node1" class="node">
<title>Internet</title>
<ellipse fill="#eceff1" stroke="black" cx="51.21" cy="-168" rx="51.43" ry="18"/>
<text text-anchor="middle" x="51.21" y="-165.5" font-family="Helvetica,sans-Serif" font-size="10.00">Public Internet</text>
</g>
<!-- n_bastion_instance -->
<g id="node2" class="node">
<title>n_bastion_instance</title>
<path fill="#ffd54f" stroke="black" d="M249.71,-186C249.71,-186 166.71,-186 166.71,-186 160.71,-186 154.71,-180 154.71,-174 154.71,-174 154.71,-162 154.71,-162 154.71,-156 160.71,-150 166.71,-150 166.71,-150 249.71,-150 249.71,-150 255.71,-150 261.71,-156 261.71,-162 261.71,-162 261.71,-174 261.71,-174 261.71,-180 255.71,-186 249.71,-186"/>
<text text-anchor="middle" x="208.21" y="-171" font-family="Helvetica,sans-Serif" font-size="10.00">Bastion Host</text>
<text text-anchor="middle" x="208.21" y="-160" font-family="Helvetica,sans-Serif" font-size="10.00">(bastion_instance)</text>
</g>
<!-- Internet&#45;&gt;n_bastion_instance -->
<g id="edge1" class="edge">
<title>Internet&#45;&gt;n_bastion_instance</title>
<path fill="none" stroke="#546e7a" d="M102.62,-168C116.01,-168 130.59,-168 144.53,-168"/>
<polygon fill="#546e7a" stroke="#546e7a" points="144.53,-171.5 154.53,-168 144.53,-164.5 144.53,-171.5"/>
<text text-anchor="middle" x="128.57" y="-173.8" font-family="Times,serif" font-size="9.00">22/SSH</text>
</g>
<!-- n_frontend_web_instance -->
<g id="node3" class="node">
<title>n_frontend_web_instance</title>
<path fill="#81c784" stroke="black" d="M280.71,-60C280.71,-60 167.71,-60 167.71,-60 161.71,-60 155.71,-54 155.71,-48 155.71,-48 155.71,-36 155.71,-36 155.71,-30 161.71,-24 167.71,-24 167.71,-24 280.71,-24 280.71,-24 286.71,-24 292.71,-30 292.71,-36 292.71,-36 292.71,-48 292.71,-48 292.71,-54 286.71,-60 280.71,-60"/>
<text text-anchor="middle" x="224.21" y="-45" font-family="Helvetica,sans-Serif" font-size="10.00">Nginx Frontend</text>
<text text-anchor="middle" x="224.21" y="-34" font-family="Helvetica,sans-Serif" font-size="10.00">(frontend_web_instance)</text>
</g>
<!-- Internet&#45;&gt;n_frontend_web_instance -->
<g id="edge2" class="edge">
<title>Internet&#45;&gt;n_frontend_web_instance</title>
<path fill="none" stroke="#546e7a" d="M56.15,-150.04C59.49,-140.87 64.7,-129.84 72.21,-122 97.2,-95.92 132.69,-76.81 163.09,-63.92"/>
<polygon fill="#546e7a" stroke="#546e7a" points="164.42,-67.16 172.34,-60.12 161.76,-60.68 164.42,-67.16"/>
<text text-anchor="middle" x="92.71" y="-124.8" font-family="Times,serif" font-size="9.00">80/HTTP</text>
</g>
<!-- Internet&#45;&gt;n_frontend_web_instance -->
<g id="edge3" class="edge">
<title>Internet&#45;&gt;n_frontend_web_instance</title>
<path fill="none" stroke="#546e7a" d="M78.64,-152.76C89.63,-146.74 102.26,-139.41 113.21,-132 143.28,-111.66 175.4,-85.34 197.31,-66.62"/>
<polygon fill="#546e7a" stroke="#546e7a" points="199.61,-69.26 204.9,-60.08 195.04,-63.96 199.61,-69.26"/>
<text text-anchor="middle" x="151.71" y="-124.8" font-family="Times,serif" font-size="9.00">443/HTTPS</text>
</g>
<!-- n_bastion_instance&#45;&gt;n_frontend_web_instance -->
<g id="edge4" class="edge">
<title>n_bastion_instance&#45;&gt;n_frontend_web_instance</title>
<path fill="none" stroke="#546e7a" d="M210.44,-149.76C213.1,-129.12 217.59,-94.32 220.72,-70.08"/>
<polygon fill="#546e7a" stroke="#546e7a" points="224.2,-70.46 222.01,-60.1 217.26,-69.57 224.2,-70.46"/>
<text text-anchor="middle" x="230.71" y="-124.8" font-family="Times,serif" font-size="9.00">22/SSH</text>
</g>
<!-- n_backend_web_instance -->
<g id="node5" class="node">
<title>n_backend_web_instance</title>
<path fill="#ffb74d" stroke="black" d="M543.71,-60C543.71,-60 430.71,-60 430.71,-60 424.71,-60 418.71,-54 418.71,-48 418.71,-48 418.71,-36 418.71,-36 418.71,-30 424.71,-24 430.71,-24 430.71,-24 543.71,-24 543.71,-24 549.71,-24 555.71,-30 555.71,-36 555.71,-36 555.71,-48 555.71,-48 555.71,-54 549.71,-60 543.71,-60"/>
<text text-anchor="middle" x="487.21" y="-45" font-family="Helvetica,sans-Serif" font-size="10.00">Django Backend</text>
<text text-anchor="middle" x="487.21" y="-34" font-family="Helvetica,sans-Serif" font-size="10.00">(backend_web_instance)</text>
</g>
<!-- n_bastion_instance&#45;&gt;n_backend_web_instance -->
<g id="edge6" class="edge">
<title>n_bastion_instance&#45;&gt;n_backend_web_instance</title>
<path fill="none" stroke="#546e7a" d="M256.03,-150C283.81,-140.64 319.66,-129.45 352.21,-122 375.86,-116.59 384.19,-124.19 406.21,-114 429.55,-103.2 451.18,-83.52 466.21,-67.61"/>
<polygon fill="#546e7a" stroke="#546e7a" points="468.87,-69.9 473.04,-60.16 463.7,-65.17 468.87,-69.9"/>
<text text-anchor="middle" x="369.71" y="-124.8" font-family="Times,serif" font-size="9.00">22/SSH</text>
</g>
<!-- n_database_instance -->
<g id="node6" class="node">
<title>n_database_instance</title>
<path fill="#e57373" stroke="black" d="M801.21,-60C801.21,-60 709.21,-60 709.21,-60 703.21,-60 697.21,-54 697.21,-48 697.21,-48 697.21,-36 697.21,-36 697.21,-30 703.21,-24 709.21,-24 709.21,-24 801.21,-24 801.21,-24 807.21,-24 813.21,-30 813.21,-36 813.21,-36 813.21,-48 813.21,-48 813.21,-54 807.21,-60 801.21,-60"/>
<text text-anchor="middle" x="755.21" y="-45" font-family="Helvetica,sans-Serif" font-size="10.00">Postgres Database</text>
<text text-anchor="middle" x="755.21" y="-34" font-family="Helvetica,sans-Serif" font-size="10.00">(database_instance)</text>
</g>
<!-- n_bastion_instance&#45;&gt;n_database_instance -->
<g id="edge8" class="edge">
<title>n_bastion_instance&#45;&gt;n_database_instance</title>
<path fill="none" stroke="#546e7a" d="M261.73,-152.13C264.93,-151.37 268.11,-150.66 271.21,-150 322.25,-139.19 337.22,-146.93 387.21,-132 397.5,-128.93 398.75,-124.43 409.21,-122 439.1,-115.07 657.09,-126.25 685.21,-114 707.11,-104.47 725.73,-84.59 738.25,-68.29"/>
<polygon fill="#546e7a" stroke="#546e7a" points="741.12,-70.29 744.23,-60.16 735.49,-66.14 741.12,-70.29"/>
<text text-anchor="middle" x="426.71" y="-124.8" font-family="Times,serif" font-size="9.00">22/SSH</text>
</g>
<!-- n_frontend_web_instance&#45;&gt;n_backend_web_instance -->
<g id="edge5" class="edge">
<title>n_frontend_web_instance&#45;&gt;n_backend_web_instance</title>
<path fill="none" stroke="#546e7a" d="M292.97,-42C328.31,-42 371.54,-42 408.24,-42"/>
<polygon fill="#546e7a" stroke="#546e7a" points="408.4,-45.5 418.4,-42 408.4,-38.5 408.4,-45.5"/>
<text text-anchor="middle" x="355.71" y="-47.8" font-family="Times,serif" font-size="9.00">8000/app</text>
</g>
<!-- nat -->
<g id="node4" class="node">
<title>nat</title>
<path fill="#b0bec5" stroke="black" d="M382.21,-186C382.21,-186 292.21,-186 292.21,-186 286.21,-186 280.21,-180 280.21,-174 280.21,-174 280.21,-162 280.21,-162 280.21,-156 286.21,-150 292.21,-150 292.21,-150 382.21,-150 382.21,-150 388.21,-150 394.21,-156 394.21,-162 394.21,-162 394.21,-174 394.21,-174 394.21,-180 388.21,-186 382.21,-186"/>
<text text-anchor="middle" x="337.21" y="-171" font-family="Helvetica,sans-Serif" font-size="10.00">NAT Gateway</text>
<text text-anchor="middle" x="337.21" y="-160" font-family="Helvetica,sans-Serif" font-size="10.00">(vera_nat_gateway)</text>
</g>
<!-- nat&#45;&gt;Internet -->
<g id="edge11" class="edge">
<title>nat&#45;&gt;Internet</title>
<path fill="none" stroke="#90a4ae" stroke-dasharray="5,2" d="M329.7,-186.21C319.83,-207.44 300.25,-241.48 271.21,-256 220.33,-281.44 196.01,-277.19 143.21,-256 112.07,-243.5 85.5,-214.87 69.04,-193.64"/>
<polygon fill="#90a4ae" stroke="#90a4ae" points="71.83,-191.53 63.03,-185.63 66.23,-195.73 71.83,-191.53"/>
<text text-anchor="middle" x="191.21" y="-281.8" font-family="Times,serif" font-size="9.00">outbound</text>
</g>
<!-- n_backend_web_instance&#45;&gt;nat -->
<g id="edge9" class="edge">
<title>n_backend_web_instance&#45;&gt;nat</title>
<path fill="none" stroke="#90a4ae" stroke-dasharray="5,2" d="M484.11,-60.25C479.63,-80.27 469.43,-112.95 448.21,-132 435.89,-143.07 420.07,-150.64 404.27,-155.81"/>
<polygon fill="#90a4ae" stroke="#90a4ae" points="403.04,-152.52 394.46,-158.73 405.04,-159.23 403.04,-152.52"/>
<text text-anchor="middle" x="471.71" y="-124.8" font-family="Times,serif" font-size="9.00">egress</text>
</g>
<!-- n_backend_web_instance&#45;&gt;n_database_instance -->
<g id="edge7" class="edge">
<title>n_backend_web_instance&#45;&gt;n_database_instance</title>
<path fill="none" stroke="#546e7a" d="M555.88,-42C596.11,-42 646.75,-42 686.92,-42"/>
<polygon fill="#546e7a" stroke="#546e7a" points="687.16,-45.5 697.16,-42 687.16,-38.5 687.16,-45.5"/>
<text text-anchor="middle" x="626.46" y="-47.8" font-family="Times,serif" font-size="9.00">5432/PostgreSQL</text>
</g>
<!-- n_database_instance&#45;&gt;nat -->
<g id="edge10" class="edge">
<title>n_database_instance&#45;&gt;nat</title>
<path fill="none" stroke="#90a4ae" stroke-dasharray="5,2" d="M743.47,-60.15C731.06,-76.82 709.88,-101.41 685.21,-114 637.43,-138.38 491.54,-154.25 404.56,-161.81"/>
<polygon fill="#90a4ae" stroke="#90a4ae" points="404.18,-158.33 394.52,-162.67 404.78,-165.3 404.18,-158.33"/>
<text text-anchor="middle" x="679.71" y="-124.8" font-family="Times,serif" font-size="9.00">egress</text>
</g>
</g>
</svg>
